<?xml version="1.0" encoding="UTF-8" standalone="no"?>
<!-- Created with Inkscape (http://www.inkscape.org/) -->

<svg
   xmlns:dc="http://purl.org/dc/elements/1.1/"
   xmlns:cc="http://creativecommons.org/ns#"
   xmlns:rdf="http://www.w3.org/1999/02/22-rdf-syntax-ns#"
   xmlns:svg="http://www.w3.org/2000/svg"
   xmlns="http://www.w3.org/2000/svg"
   xmlns:sodipodi="http://sodipodi.sourceforge.net/DTD/sodipodi-0.dtd"
   xmlns:inkscape="http://www.inkscape.org/namespaces/inkscape"
   width="256"
   height="60"
   viewBox="0 0 256 60.000001"
   id="svg2"
   version="1.1"
   inkscape:version="0.91 r13725"
   sodipodi:docname="prostogram.svg">
  <defs
     id="defs4" />
  <sodipodi:namedview
     id="base"
     pagecolor="#ffffff"
     bordercolor="#666666"
     borderopacity="1.0"
     inkscape:pageopacity="0.0"
     inkscape:pageshadow="2"
     inkscape:zoom="0.7"
     inkscape:cx="25.409037"
     inkscape:cy="326.93959"
     inkscape:document-units="px"
     inkscape:current-layer="layer1"
     showgrid="false"
     units="px"
     inkscape:window-width="1920"
     inkscape:window-height="1051"
     inkscape:window-x="0"
     inkscape:window-y="312"
     inkscape:window-maximized="1" />
  <metadata
     id="metadata7">
    <rdf:RDF>
      <cc:Work
         rdf:about="">
        <dc:format>image/svg+xml</dc:format>
        <dc:type
           rdf:resource="http://purl.org/dc/dcmitype/StillImage" />
        <dc:title />
      </cc:Work>
    </rdf:RDF>
  </metadata>
  <g
     inkscape:label="Layer 1"
     inkscape:groupmode="layer"
     id="layer1"
     transform="translate(0,-992.36216)">
    <g
       transform="matrix(1.733852,0,0,1.733852,1.981063,526.81172)"
       style="font-style:normal;font-variant:normal;font-weight:normal;font-stretch:normal;font-size:40px;line-height:125%;font-family:Billabong;-inkscape-font-specification:Billabong;letter-spacing:0px;word-spacing:0px;fill:#000000;fill-opacity:1;stroke:none;stroke-width:1px;stroke-linecap:butt;stroke-linejoin:miter;stroke-opacity:1"
       id="flowRoot4136">
      <path
         d="m 24.337422,279.02896 q 0,2.2 -0.76,4.28 -0.72,2.04 -2,3.64 -1.28,1.6 -3,2.6 -1.68,0.96 -3.6,0.96 -0.48,0 -0.96,-0.24 -0.48,-0.28 -1,-0.6 l -0.2,-0.12 q -0.08,0.96 -0.2,2.36 -0.08,1.36 -0.08,3.04 0,0.28 0,0.48 0,0.2 0,0.36 0.04,0.16 0.04,0.32 0,0.16 0,0.44 0,0.44 0.2,0.88 0.24,0.44 0.24,0.52 0,0.36 -0.48,0.4 -0.48,0.08 -0.6,0.08 -1.04,0 -1.64,-0.32 -0.5600001,-0.32 -0.8400001,-1.36 -0.28,-1.04 -0.36,-3 -0.04,-2 -0.04,-5.28 0,-2.76 0.12,-5.32 0.12,-2.56 0.28,-4.64 0.2,-2.12 0.36,-3.64 0.2000001,-1.56 0.3200001,-2.32 -0.4800001,0.08 -1.2800001,0.36 -0.76,0.24 -1.64,0.6 -0.88,0.36 -1.8,0.84 -0.92,0.48 -1.68,1 -0.72,0.52 -1.16,1.08 -0.48,0.52 -0.48,1.04 l 0.68,2.24 q 0,0.32 -0.12,0.84 -0.12,0.48 -0.68,0.48 -0.8,0 -1.36000003,-0.28 -0.6,-0.32 -0.96,-0.76 -0.39999999,-0.48 -0.59999999,-1 -0.19999998,-0.52 -0.19999998,-0.96 0,-1.24 0.87999997,-2.32 0.84,-1.08 2.24000003,-1.96 1.36,-0.88 3.12,-1.6 1.76,-0.72 3.56,-1.2 1.8000001,-0.48 3.4400001,-0.72 1.68,-0.28 2.88,-0.28 1.4,0 2.76,0.2 1.4,0.16 2.76,0.84 1.44,0.72 2.2,2 0.8,1.28 1.16,2.56 0.36,1.28 0.4,2.28 0.08,1 0.08,1.2 z m -2.8,-1.72 q 0,-1.88 -0.88,-2.92 -0.84,-1.08 -2.12,-1.6 -1.24,-0.52 -2.64,-0.6 -1.4,-0.12 -2.52,-0.12 -0.24,0 -0.84,0.08 -0.56,0.04 -1.48,0.2 1.32,0.32 1.88,0.88 0.56,0.56 0.52,1 l -0.44,11.32 q 0,1.4 0.24,2.08 0.24,0.68 1.36,0.68 1.08,0 2.28,-1.16 1.24,-1.2 2.24,-2.88 1.04,-1.72 1.72,-3.6 0.68,-1.92 0.68,-3.36 z"
         style="fill:#000000"
         id="path4146" />
      <path
         d="m 37.235547,290.62896 q 0,0.28 -0.2,1.36 -0.16,1.04 -0.64,2.24 -0.44,1.16 -1.24,2.08 -0.76,0.92 -1.96,0.92 -1.28,0 -2.04,-0.92 -0.76,-0.88 -1.16,-2.12 -0.4,-1.28 -0.52,-2.64 -0.12,-1.4 -0.12,-2.32 0,-1.04 0.12,-2.08 0.12,-1.08 0.16,-2.12 0,-0.32 -0.32,-0.4 -0.32,-0.08 -0.6,-0.08 -0.48,0 -0.6,0.12 -0.12,0.12 -0.16,0.28 l -0.16,1.28 q -0.16,1.28 -0.36,2.48 -0.16,1.16 -0.4,2.08 -0.2,0.88 -0.52,1.44 -0.28,0.52 -0.68,0.52 l -0.04,0 q -0.16,0 -0.32,-0.08 -0.12,-0.08 -0.12,-0.4 0,-0.16 0.08,-0.48 0.32,-1.4 0.4,-2.32 0.08,-0.92 0.12,-1.64 l 0,-0.28 q 0,-0.2 0,-0.48 0.04,-0.28 0.04,-0.68 l 0,-1.04 q 0,-0.44 0,-0.92 0,-0.48 -0.08,-1.04 l -0.12,-2.36 q 0,-0.24 0.2,-0.44 0.2,-0.2 0.52,-0.36 0.32,-0.16 0.68,-0.24 0.36,-0.08 0.64,-0.08 0.68,0 0.68,0.88 l 0,0.2 -0.04,0.88 0,0.24 q 0,0.28 0.12,0.36 0.12,0.04 0.48,0.12 l 0.12,0 q 0.32,0.04 1.04,0.08 0.72,0.04 1.44,0.16 0.72,0.12 1.24,0.4 0.56,0.24 0.56,0.72 0,0.16 -0.08,0.48 -0.08,0.28 -0.2,0.6 -0.12,0.28 -0.2,0.52 -0.08,0.24 -0.08,0.32 -0.72,2.76 -0.72,5.76 0,0.24 0.04,0.88 0.04,0.64 0.16,1.32 0.12,0.68 0.36,1.2 0.24,0.52 0.6,0.52 0.6,0 1.08,-0.72 0.48,-0.76 0.84,-1.72 0.36,-1 0.56,-2 0.24,-1 0.32,-1.48 0.08,-0.44 0.24,-0.52 0.2,-0.12 0.36,-0.12 0.56,0 0.56,0.72 0,0.08 -0.04,0.44 0,0.32 -0.04,0.48 z"
         style="fill:#000000"
         id="path4148" />
      <path
         d="m 49.471797,284.82896 q 0.16,-0.28 0.56,-0.28 0.2,0 0.28,0.24 0.08,0.24 0.08,0.4 -0.04,1.24 -0.56,2.24 -0.48,0.96 -1.04,1.68 -0.32,0.44 -0.72,0.8 -0.36,0.36 -0.76,0.68 -0.04,0.68 -0.08,0.96 0,0.24 -0.04,0.4 -0.08,0.6 -0.4,1.52 -0.32,0.92 -0.92,1.8 -0.56,0.88 -1.4,1.48 -0.8,0.64 -1.88,0.64 -0.36,0 -0.84,-0.08 -0.44,-0.08 -0.92,-0.24 -0.48,-0.12 -0.92,-0.32 -0.44,-0.16 -0.76,-0.36 -1,-0.56 -1.64,-1.32 -0.64,-0.76 -1,-1.6 -0.32,-0.88 -0.44,-1.76 -0.12,-0.92 -0.12,-1.76 0,-1.44 0.28,-2.92 0.32,-1.48 0.76,-2.84 0.44,-1.36 1,-2.44 0.56,-1.08 1.08,-1.68 0.52,-0.56 1.16,-0.76 0.64,-0.24 1.16,-0.24 0.64,0 1.28,0.32 0.64,0.32 1.24,0.8 0.6,0.48 1.16,1.12 0.6,0.6 1.12,1.2 0.4,0.44 0.6,1.44 0.2,0.96 0.32,1.96 0.08,0.56 0.12,1.2 0.04,0.64 0.04,1.32 0.6,-0.48 0.96,-1 0.36,-0.56 0.56,-1.04 0.24,-0.48 0.36,-0.88 0.16,-0.44 0.32,-0.68 z m -4.52,3.44 q 0,-0.16 -0.04,-0.72 0,-0.56 -0.08,-1.32 -0.04,-0.76 -0.2,-1.56 -0.12,-0.84 -0.4,-1.52 -0.24,-0.68 -0.64,-1.12 -0.4,-0.48 -1,-0.48 -0.6,0 -1.16,0.48 -0.56,0.48 -1,1.24 -0.44,0.76 -0.72,1.72 -0.24,0.96 -0.24,1.88 0,1.6 0.64,2.36 0.64,0.72 2.2,0.72 1.16,0 1.88,-0.36 0.76,-0.36 0.76,-0.56 l 0,-0.76 0,0 z m -0.2,3.28 q -0.48,0.32 -1.32,0.48 -0.84,0.16 -1.4,0.16 -1.08,0 -1.68,-0.16 -0.56,-0.16 -1.24,-0.64 l -0.04,0.84 q 0,0.44 0.12,0.92 0.12,0.48 0.36,0.88 0.28,0.4 0.76,0.68 0.48,0.24 1.2,0.24 0.88,0 1.48,-0.32 0.64,-0.36 1,-0.88 0.4,-0.52 0.56,-1.12 0.2,-0.6 0.2,-1.08 z"
         style="fill:#000000"
         id="path4150" />
      <path
         d="m 58.798672,293.78896 q 0,0.96 -0.64,1.48 -0.64,0.52 -1.48,0.76 -0.8,0.24 -1.64,0.28 -0.8,0.08 -1.16,0.08 -0.56,0 -1.4,-0.12 -0.8,-0.12 -1.6,-0.36 -0.76,-0.28 -1.32,-0.76 -0.52,-0.48 -0.52,-1.2 0,-0.44 0.32,-0.6 0.36,-0.2 0.68,-0.2 0.44,0 0.84,0.32 0.44,0.32 0.88,0.68 0.48,0.36 1.04,0.68 0.56,0.32 1.28,0.32 0.32,0 0.84,-0.2 0.56,-0.24 0.56,-0.8 0,-0.56 -0.48,-1.08 -0.44,-0.52 -1.16,-1.08 -0.68,-0.56 -1.48,-1.16 -0.8,-0.6 -1.52,-1.28 -0.68,-0.72 -1.16,-1.56 -0.44,-0.84 -0.44,-1.84 0,-1.4 0.88,-2.36 0.92,-0.96 2.12,-1.52 1.24,-0.56 2.52,-0.8 1.28,-0.24 2,-0.24 0.68,0 1.36,0.28 0.68,0.28 0.68,1.08 0,0.24 -0.12,0.72 -0.08,0.44 -0.32,0.88 -0.2,0.44 -0.56,0.8 -0.36,0.32 -0.92,0.32 -0.16,0 -0.32,-0.12 -0.16,-0.16 -0.36,-0.32 -0.2,-0.2 -0.44,-0.32 -0.2,-0.16 -0.48,-0.16 -1.4,0 -1.96,0.84 -0.56,0.8 -0.56,1.72 0,0.8 0.92,1.68 0.96,0.88 2.08,1.76 1.16,0.88 2.08,1.76 0.96,0.84 0.96,1.64 z"
         style="fill:#000000"
         id="path4152" />
      <path
         d="m 59.621172,289.02896 q 0.04,-2.04 0.12,-4.16 0.08,-2.12 0.16,-3.92 0,-0.32 -0.64,-0.44 -0.64,-0.12 -1.44,-0.24 -0.8,-0.12 -1.44,-0.36 -0.64,-0.28 -0.64,-0.88 0,-0.52 1.04,-0.6 1.04,-0.08 3.08,-0.08 0.16,0 0.2,-0.48 0.08,-0.48 0.08,-1.2 0.04,-0.76 0.04,-1.6 0.04,-0.84 0.08,-1.56 0.04,-0.76 0.12,-1.24 0.12,-0.48 0.28,-0.48 0.2,0 0.72,0.08 0.52,0.08 1.08,0.24 0.56,0.12 0.96,0.32 0.44,0.2 0.44,0.44 l -0.44,5.2 q 0,0.24 0.4,0.36 0.44,0.08 1.08,0.12 0.68,0 1.4,0 0.76,0 1.4,0.12 0.68,0.12 1.08,0.4 0.44,0.24 0.44,0.76 0,0.08 -0.08,0.28 -0.08,0.16 -0.2,0.16 -0.08,0 -0.24,-0.12 -0.12,-0.12 -0.72,-0.12 -0.16,0 -0.88,0.04 -0.72,0.04 -1.52,0.12 -0.8,0.08 -1.48,0.2 -0.64,0.08 -0.72,0.24 -0.04,0.08 -0.12,0.96 -0.04,0.84 -0.12,2.24 -0.04,1.4 -0.08,3.24 -0.04,1.8 -0.04,3.8 0,0.76 0.08,1.48 0.08,0.72 0.24,1.32 0.16,0.56 0.4,0.92 0.28,0.36 0.64,0.36 0.52,0 0.96,-0.44 0.44,-0.44 0.8,-1.2 0.36,-0.76 0.64,-1.72 0.28,-0.96 0.48,-1.96 0.12,-0.6 0.28,-0.84 0.16,-0.28 0.48,-0.28 0.28,0 0.48,0.2 0.24,0.16 0.24,0.8 0,0.4 -0.04,0.52 -0.12,0.72 -0.48,2 -0.32,1.24 -0.92,2.48 -0.56,1.2 -1.4,2.12 -0.84,0.92 -1.96,0.92 -1.08,0 -1.88,-0.64 -0.8,-0.6 -1.36,-1.68 -0.52,-1.12 -0.8,-2.6 -0.28,-1.52 -0.28,-3.24 l 0,-0.36 z"
         style="fill:#000000"
         id="path4154" />
      <path
         d="m 80.878047,284.82896 q 0.16,-0.28 0.56,-0.28 0.2,0 0.28,0.24 0.08,0.24 0.08,0.4 -0.04,1.24 -0.56,2.24 -0.48,0.96 -1.04,1.68 -0.32,0.44 -0.72,0.8 -0.36,0.36 -0.76,0.68 -0.04,0.68 -0.08,0.96 0,0.24 -0.04,0.4 -0.08,0.6 -0.4,1.52 -0.32,0.92 -0.92,1.8 -0.56,0.88 -1.4,1.48 -0.8,0.64 -1.88,0.64 -0.36,0 -0.84,-0.08 -0.44,-0.08 -0.92,-0.24 -0.48,-0.12 -0.92,-0.32 -0.44,-0.16 -0.76,-0.36 -1,-0.56 -1.64,-1.32 -0.64,-0.76 -1,-1.6 -0.32,-0.88 -0.44,-1.76 -0.12,-0.92 -0.12,-1.76 0,-1.44 0.28,-2.92 0.32,-1.48 0.76,-2.84 0.44,-1.36 1,-2.44 0.56,-1.08 1.08,-1.68 0.52,-0.56 1.16,-0.76 0.64,-0.24 1.16,-0.24 0.64,0 1.28,0.32 0.64,0.32 1.24,0.8 0.6,0.48 1.16,1.12 0.6,0.6 1.12,1.2 0.4,0.44 0.6,1.44 0.2,0.96 0.32,1.96 0.08,0.56 0.12,1.2 0.04,0.64 0.04,1.32 0.6,-0.48 0.96,-1 0.36,-0.56 0.56,-1.04 0.24,-0.48 0.36,-0.88 0.16,-0.44 0.32,-0.68 z m -4.52,3.44 q 0,-0.16 -0.04,-0.72 0,-0.56 -0.08,-1.32 -0.04,-0.76 -0.2,-1.56 -0.12,-0.84 -0.4,-1.52 -0.24,-0.68 -0.64,-1.12 -0.4,-0.48 -1,-0.48 -0.6,0 -1.16,0.48 -0.56,0.48 -1,1.24 -0.44,0.76 -0.72,1.72 -0.24,0.96 -0.24,1.88 0,1.6 0.64,2.36 0.64,0.72 2.2,0.72 1.16,0 1.88,-0.36 0.76,-0.36 0.76,-0.56 l 0,-0.76 0,0 z m -0.2,3.28 q -0.48,0.32 -1.32,0.48 -0.84,0.16 -1.4,0.16 -1.08,0 -1.68,-0.16 -0.56,-0.16 -1.24,-0.64 l -0.04,0.84 q 0,0.44 0.12,0.92 0.12,0.48 0.36,0.88 0.28,0.4 0.76,0.68 0.48,0.24 1.2,0.24 0.88,0 1.48,-0.32 0.64,-0.36 1,-0.88 0.4,-0.52 0.56,-1.12 0.2,-0.6 0.2,-1.08 z"
         style="fill:#000000"
         id="path4156" />
      <path
         d="m 95.004922,291.50896 q -1.28,1.32 -2.52,1.76 -1.2,0.44 -2.44,0.44 -1.8,0 -3.24,-0.68 -1.44,-0.68 -2.44,-1.92 -1,-1.24 -1.52,-2.96 -0.52,-1.76 -0.52,-3.84 0,-0.32 0,-0.64 0,-0.32 0.04,-0.64 0.16,-2.68 1,-4.84 0.84,-2.16 2.04,-3.68 1.2,-1.52 2.6,-2.32 1.44,-0.84 2.76,-0.84 l 0.44,0 q 0.84,0 1.4,0.24 0.6,0.24 1.08,0.56 0.52,0.32 1,0.68 0.48,0.36 1.12,0.6 0.52,0.16 0.8,0.52 0.32,0.32 0.48,0.8 0.16,0.44 0.2,0.96 0.08,0.48 0.08,0.92 l 0,0.44 q -0.04,0.72 -0.16,1.36 -0.12,0.64 -0.4,1.16 -0.24,0.48 -0.72,0.8 -0.44,0.28 -1.16,0.28 -0.68,0 -1.08,-0.36 -0.4,-0.4 -0.4,-0.96 0,-0.08 0.04,-0.4 0.04,-0.32 0.08,-0.76 0.08,-0.48 0.12,-0.96 0.04,-0.52 0.04,-1 0,-1.36 -0.6,-1.88 -0.56,-0.52 -1.48,-0.52 -1.36,0 -2.4,0.8 -1.04,0.76 -1.72,2.16 -0.68,1.4 -1.04,3.4 -0.36,1.96 -0.36,4.32 0,5.6 3.64,6.84 0.28,0.08 0.6,0.16 0.32,0.08 0.64,0.08 1,0 1.64,-0.4 0.64,-0.4 1,-1 0.36,-0.6 0.48,-1.32 0.16,-0.72 0.16,-1.36 0,-1.72 0.52,-2.44 0.52,-0.76 1.72,-0.76 0.32,0 0.64,0.12 0.32,0.08 0.6,0.2 0.16,0.08 0.32,0.16 0.16,0.08 0.32,0.16 -0.28,0.48 -0.48,0.92 -0.2,0.4 -0.36,0.92 -0.16,0.52 -0.24,1.16 -0.08,0.64 -0.08,1.48 0,0.72 0.12,1.36 0.16,0.6 0.32,1.24 0.2,0.64 0.32,1.32 0.16,0.68 0.16,1.52 0,1.24 -0.44,2.44 -0.4,1.24 -1.36,2.2 -0.96,0.96 -2.6,1.56 -1.6,0.6 -4,0.6 -0.96,0 -2.04,-0.16 -1.08,-0.16 -1.96,-0.56 -0.88,-0.36 -1.48,-1 -0.56,-0.64 -0.56,-1.64 0,-0.76 0.44,-1.28 0.44,-0.48 1.24,-0.48 0.52,0 1.12,0.24 0,1.68 0.96,2.32 1,0.64 2.32,0.64 1.8,0 2.8,-0.6 1.04,-0.56 1.56,-1.4 0.56,-0.84 0.68,-1.8 0.16,-1 0.16,-1.76 l 0,-2.68 z"
         style="fill:#000000"
         id="path4158" />
      <path
         d="m 111.29805,290.62896 q 0,0.28 -0.2,1.36 -0.16,1.04 -0.64,2.24 -0.44,1.16 -1.24,2.08 -0.76,0.92 -1.96,0.92 -1.28,0 -2.04,-0.92 -0.76,-0.88 -1.16,-2.12 -0.4,-1.28 -0.52,-2.64 -0.12,-1.4 -0.12,-2.32 0,-1.04 0.12,-2.08 0.12,-1.08 0.16,-2.12 0,-0.32 -0.32,-0.4 -0.32,-0.08 -0.6,-0.08 -0.48,0 -0.6,0.12 -0.12,0.12 -0.16,0.28 l -0.16,1.28 q -0.16,1.28 -0.36,2.48 -0.16,1.16 -0.4,2.08 -0.2,0.88 -0.52,1.44 -0.28,0.52 -0.680003,0.52 l -0.04,0 q -0.16,0 -0.32,-0.08 -0.12,-0.08 -0.12,-0.4 0,-0.16 0.08,-0.48 0.32,-1.4 0.4,-2.32 0.08,-0.92 0.120003,-1.64 l 0,-0.28 q 0,-0.2 0,-0.48 0.04,-0.28 0.04,-0.68 l 0,-1.04 q 0,-0.44 0,-0.92 0,-0.48 -0.08,-1.04 l -0.12,-2.36 q 0,-0.24 0.200003,-0.44 0.2,-0.2 0.52,-0.36 0.32,-0.16 0.68,-0.24 0.36,-0.08 0.64,-0.08 0.68,0 0.68,0.88 l 0,0.2 -0.04,0.88 0,0.24 q 0,0.28 0.12,0.36 0.12,0.04 0.48,0.12 l 0.12,0 q 0.32,0.04 1.04,0.08 0.72,0.04 1.44,0.16 0.72,0.12 1.24,0.4 0.56,0.24 0.56,0.72 0,0.16 -0.08,0.48 -0.08,0.28 -0.2,0.6 -0.12,0.28 -0.2,0.52 -0.08,0.24 -0.08,0.32 -0.72,2.76 -0.72,5.76 0,0.24 0.04,0.88 0.04,0.64 0.16,1.32 0.12,0.68 0.36,1.2 0.24,0.52 0.6,0.52 0.6,0 1.08,-0.72 0.48,-0.76 0.84,-1.72 0.36,-1 0.56,-2 0.24,-1 0.32,-1.48 0.08,-0.44 0.24,-0.52 0.2,-0.12 0.36,-0.12 0.56,0 0.56,0.72 0,0.08 -0.04,0.44 0,0.32 -0.04,0.48 z"
         style="fill:#000000"
         id="path4160" />
      <path
         d="m 126.0143,291.90896 q -0.08,0.56 -0.4,1.32 -0.32,0.76 -0.84,1.48 -0.48,0.68 -1.16,1.16 -0.64,0.48 -1.44,0.48 -1.2,0 -2.12,-0.92 -0.88,-0.92 -1.08,-2.6 -0.24,0.64 -0.56,1.48 -0.32,0.84 -0.8,1.56 -0.48,0.72 -1.12,1.2 -0.6,0.52 -1.44,0.52 -0.24,0 -0.36,-0.04 -0.12,-0.04 -0.28,-0.12 -0.12,-0.04 -0.32,-0.08 -0.16,-0.04 -0.48,-0.04 -0.96,0 -1.64,-0.64 -0.64,-0.6 -1.04,-1.56 -0.4,-0.96 -0.6,-2.08 -0.16,-1.16 -0.16,-2.16 0,-2.4 0.24,-4.56 0.28,-2.16 0.88,-3.8 0.6,-1.68 1.56,-2.64 0.96,-1 2.32,-1 0.8,0 1.2,0.16 0.44,0.12 0.8,0.32 0.36,0.16 0.76,0.36 0.44,0.2 1.2,0.32 0.84,0.48 1.16,1.16 0.36,0.64 0.44,1.4 0.12,0.76 0.08,1.6 -0.04,0.8 0.08,1.6 0,0.04 0.16,0.12 0.2,0.08 0.44,0.2 0.24,0.08 0.4,0.28 0.2,0.16 0.2,0.44 l 0,0.16 q -0.4,1.04 -0.48,1.84 -0.08,0.8 -0.08,1.92 0,0.56 0.04,1.24 0.08,0.64 0.2,1.24 0.16,0.56 0.44,0.96 0.28,0.36 0.72,0.36 0.48,0 0.84,-0.48 0.4,-0.48 0.64,-1.08 0.28,-0.64 0.44,-1.28 0.2,-0.64 0.24,-0.96 0.08,-0.48 0.4,-0.48 0.2,0 0.36,0.24 0.2,0.2 0.2,0.76 0,0.16 0,0.32 0,0.12 -0.04,0.32 z m -7.4,-6.48 q 0,-0.44 -0.08,-1.04 -0.08,-0.6 -0.28,-1.12 -0.2,-0.52 -0.6,-0.88 -0.4,-0.36 -1.08,-0.36 -1.12,0 -1.84,1.04 -0.68,1 -1.08,2.4 -0.4,1.36 -0.52,2.84 -0.12,1.44 -0.12,2.28 0,0.64 0.04,1.56 0.08,0.88 0.24,1.68 0.16,0.8 0.44,1.36 0.32,0.56 0.8,0.56 1.16,0 1.76,-0.88 0.64,-0.92 0.96,-2.24 0.32,-1.36 0.44,-2.88 0.16,-1.56 0.28,-2.84 0.08,-0.68 0.36,-0.84 0.28,-0.2 0.28,-0.28 l 0,-0.36 z"
         style="fill:#000000"
         id="path4162" />
      <path
         d="m 138.26555,286.42896 q -0.56,1.08 -1.04,2.28 -0.48,1.2 -0.72,1.88 -0.04,0.2 -0.24,0.84 -0.16,0.64 -0.4,1.44 -0.2,0.76 -0.36,1.52 -0.16,0.76 -0.16,1.24 0,0.2 -0.36,0.36 -0.36,0.16 -0.92,0.16 -0.88,0 -1.4,-0.24 -0.52,-0.24 -0.8,-0.76 -0.24,-0.56 -0.32,-1.44 -0.04,-0.88 -0.04,-2.12 l 0,-3 q 0,-0.32 -0.04,-0.64 0,-0.32 -0.12,-0.4 -0.2,0.08 -0.52,1.04 -0.28,0.96 -0.56,2.36 -0.24,1.36 -0.44,2.88 -0.2,1.52 -0.2,2.72 0,0.44 -0.48,0.52 -0.44,0.08 -1,0.08 -0.16,0 -0.56,-0.08 -0.36,-0.04 -0.76,-0.12 -0.36,-0.08 -0.68,-0.24 -0.32,-0.12 -0.4,-0.32 -0.2,-0.52 -0.32,-1.72 -0.08,-1.2 -0.08,-3.72 0,-1.48 0.04,-3.44 0.08,-1.96 0.16,-4.6 0,-0.36 -0.04,-0.92 -0.04,-0.6 -0.04,-0.68 0,-0.32 0.24,-0.36 0.28,-0.08 0.4,-0.08 0.28,0 0.64,0.08 0.4,0.04 0.76,0.12 0.4,0.08 0.72,0.2 0.32,0.08 0.44,0.16 l 0,9.64 q 0.2,-0.8 0.44,-1.84 0.28,-1.08 0.6,-2.12 0.36,-1.04 0.76,-1.92 0.4,-0.88 0.84,-1.28 0.16,-0.12 0.6,-0.16 0.44,-0.08 0.72,-0.08 0.2,0 0.48,0.08 0.32,0.04 0.6,0.16 0.28,0.12 0.48,0.32 0.24,0.16 0.28,0.4 l 0,6.48 0,0.36 q 0,0.24 0.08,0.24 0.08,0 0.44,-1.08 0.4,-1.08 0.92,-2.56 0.52,-1.48 1.12,-3.04 0.6,-1.56 1.08,-2.48 0.08,-0.16 0.52,-0.16 0.48,-0.04 0.84,-0.04 0.28,0 0.76,0.2 0.48,0.16 0.92,0.48 0.48,0.32 0.8,0.72 0.36,0.4 0.36,0.84 0,0.08 -0.24,0.48 -0.24,0.36 -0.32,0.76 -0.28,1.12 -0.4,2.2 -0.08,1.08 -0.08,2.76 0,0.72 0.04,1.44 0.08,0.72 0.2,1.32 0.16,0.56 0.4,0.92 0.24,0.36 0.64,0.36 0.56,0 1,-0.36 0.44,-0.4 0.76,-1.04 0.32,-0.64 0.56,-1.48 0.24,-0.88 0.4,-1.8 0.2,-0.96 0.72,-0.96 0.32,0 0.4,0.16 0.12,0.16 0.12,0.72 0,0.32 -0.04,0.44 -0.04,0.52 -0.36,1.64 -0.28,1.08 -0.84,2.2 -0.52,1.08 -1.32,1.92 -0.8,0.8 -1.84,0.8 -1.24,0 -2.04,-0.6 -0.8,-0.56 -1.24,-1.52 -0.44,-1 -0.64,-2.28 -0.16,-1.28 -0.16,-2.68 l 0,-0.28 0.24,-3.28 z"
         style="fill:#000000"
         id="path4164" />
    </g>
  </g>
</svg>
