<?xml version="1.0" encoding="iso-8859-1"?>
<!-- Generator: Adobe Illustrator 17.1.0, SVG Export Plug-In . SVG Version: 6.00 Build 0)  -->
<!DOCTYPE svg PUBLIC "-//W3C//DTD SVG 1.1//EN" "http://www.w3.org/Graphics/SVG/1.1/DTD/svg11.dtd">
<svg version="1.1" id="Capa_1" xmlns="http://www.w3.org/2000/svg" xmlns:xlink="http://www.w3.org/1999/xlink" x="0px" y="0px"
	 viewBox="0 0 423.163 423.163" style="enable-background:new 0 0 423.163 423.163;" xml:space="preserve">
<path d="M132.041,149.717c10.72,6.368,22.734,9.551,34.753,9.551c12.016,0,24.036-3.185,34.753-9.551
	c25.498-15.148,39.326-45.114,37.938-82.214c-1.564-41.747-33.677-63.452-65.243-67.234c-2.373-0.284-11.589-0.353-13.493-0.157
	c-11.964,1.233-24.071,5.038-34.629,11.534c-0.668,0.327-6.706,4.583-8.965,6.514C104.085,29.333,94.92,45.679,94.103,67.503
	C92.716,104.603,106.543,134.569,132.041,149.717z M166.794,19.719c23.495,0.946,47.543,14.139,52.012,41.496
	c-12.811,8.591-29.068,10.645-43.578,5.249c-16.529-6.147-28.473-20.795-33.45-40.699C149.534,22.05,158.202,20.065,166.794,19.719z
	 M114.09,68.251c0.456-12.188,4.487-21.962,10.704-29.458c7.708,22.285,22.985,38.801,43.463,46.417
	c16.599,6.174,34.799,5.48,50.726-1.405c-2.421,22.159-12.117,39.49-27.65,48.718c-15.134,8.991-33.939,8.993-49.075,0
	C123.25,121.231,112.984,97.805,114.09,68.251z M367.4,256.127c-0.1-5.378-4.436-9.714-9.814-9.813l-61.397-1.132
	c-2.732-0.074-5.335,1.006-7.256,2.927l-95.451,95.452c-1.875,1.875-2.929,4.419-2.929,7.071c0,2.652,1.054,5.196,2.929,7.071
	l62.533,62.532c1.875,1.875,4.419,2.929,7.071,2.929c2.652,0,5.196-1.054,7.071-2.929l95.45-95.452
	c1.92-1.92,2.977-4.54,2.927-7.255L367.4,256.127z M263.086,399.021l-48.391-48.39l85.375-85.375l47.511,0.876l0.878,47.513
	L263.086,399.021z M330.537,286.899c2.74,4.795,1.074,10.904-3.721,13.644c-1.565,0.894-3.271,1.319-4.954,1.319
	c-3.472,0-6.846-1.81-8.692-5.04c-2.74-4.795-1.076-10.903,3.719-13.643l0.003-0.002
	C321.689,280.439,327.797,282.105,330.537,286.899z M176.792,229.525l0.002,59.542c0,5.523-4.477,10-10,10c-5.523,0-10-4.477-10-10
	l-0.002-59.542c0-5.523,4.477-10,10-10S176.792,224.002,176.792,229.525z M166.785,373.737c0,5.523-4.477,10-10,10H64.716
	c-2.971,0-5.835-1.373-7.735-3.658s-2.731-5.348-2.19-8.27l23.599-127.297c8.243-44.502,50.187-64.776,88.142-64.776
	c0.053,0,0.104,0,0.158,0c37.974,0,79.967,20.248,88.215,64.78c1.005,5.431-2.582,10.778-8.012,11.784
	c-5.435,1.003-10.648-2.579-11.654-8.009c-6.16-33.259-38.881-48.212-68.592-48.288c-29.711,0.076-62.432,15.043-68.592,48.302
	L76.649,363.737h80.136C162.308,363.737,166.785,368.214,166.785,373.737z"/>
<g>
</g>
<g>
</g>
<g>
</g>
<g>
</g>
<g>
</g>
<g>
</g>
<g>
</g>
<g>
</g>
<g>
</g>
<g>
</g>
<g>
</g>
<g>
</g>
<g>
</g>
<g>
</g>
<g>
</g>
</svg>
